<svg width="54" height="50" viewBox="0 0 54 50" fill="none" xmlns="http://www.w3.org/2000/svg">
<path d="M46.4444 48.0002H7.55556C4.48731 48.0002 2 45.4884 2 42.3897V17.1427C2 14.0441 4.48731 11.5322 7.55556 11.5322H46.4444C49.5128 11.5322 52 14.0441 52 17.1427V42.3897C52 45.4884 49.5128 48.0002 46.4444 48.0002Z" stroke="white" stroke-width="2.35"/>
<path d="M39.4992 31.1685C38.7323 31.1685 38.1104 30.5404 38.1104 29.7659C38.1104 28.9914 38.7323 28.3633 39.4992 28.3633C40.2662 28.3633 40.8881 28.9914 40.8881 29.7659C40.8881 30.5404 40.2662 31.1685 39.4992 31.1685Z" fill="#4B7F7F" stroke="white" stroke-width="2.35" stroke-linecap="round" stroke-linejoin="round"/>
<path d="M43.6667 11.5318V7.61352C43.6667 3.92728 40.2067 1.2427 36.6797 2.1925L6.12408 10.4212C3.69214 11.0761 2 13.3004 2 15.8422V17.1423" stroke="white" stroke-width="2.35"/>
<path d="M13.5703 35.7756L19.5425 29.7443M19.5425 29.7443L25.5151 23.7129M19.5425 29.7443L13.5703 23.7129M19.5425 29.7443L25.5151 35.7756" stroke="white" stroke-width="2.35" stroke-linecap="round" stroke-linejoin="round"/>
</svg>
