<svg width="30" height="31" viewBox="0 0 30 31" fill="none" xmlns="http://www.w3.org/2000/svg">
<rect x="0.202881" y="0.870117" width="29.5438" height="29.5438" rx="4.61623" fill="#5D8082"/>
<path d="M14.9746 6.41016C17.2839 8.93833 18.5963 12.2192 18.6676 15.6426C18.5963 19.066 17.2839 22.3469 14.9746 24.8751M14.9746 6.41016C12.6653 8.93833 11.353 12.2192 11.2817 15.6426C11.353 19.066 12.6653 22.3469 14.9746 24.8751M14.9746 6.41016C9.8757 6.41016 5.74219 10.5437 5.74219 15.6426C5.74219 20.7415 9.8757 24.8751 14.9746 24.8751M14.9746 6.41016C20.0736 6.41016 24.2071 10.5437 24.2071 15.6426C24.2071 20.7415 20.0736 24.8751 14.9746 24.8751M6.20383 12.8729H23.7455M6.20381 18.4123H23.7455" stroke="white" stroke-width="1.84649" stroke-linecap="round" stroke-linejoin="round"/>
</svg>
