<svg width="35" height="35" viewBox="0 0 35 35" fill="none" xmlns="http://www.w3.org/2000/svg">
<circle cx="17.5" cy="17.5" r="17.5" fill="#4B7F7F"/>
<path d="M30.3516 11.9207V5.64453C30.3516 5.09442 29.9056 4.64844 29.3555 4.64844H23.0793L18.7028 0.290262C18.3141 -0.0967539 17.6858 -0.0967539 17.2971 0.290262L12.9207 4.64844H6.64453C6.09442 4.64844 5.64844 5.09442 5.64844 5.64453V11.9207L1.29026 16.2972C0.903246 16.6858 0.903246 17.3142 1.29026 17.7029L5.64844 22.0793V28.3555C5.64844 28.9056 6.09442 29.3516 6.64453 29.3516H12.9207L17.2971 33.7097C17.4915 33.9032 17.7457 34 18 34C18.2543 34 18.5085 33.9032 18.7028 33.7097L23.0793 29.3516H29.3555C29.9056 29.3516 30.3516 28.9056 30.3516 28.3555V22.0793L34.7097 17.7029C35.0968 17.3142 35.0968 16.6858 34.7097 16.2972L30.3516 11.9207ZM28.6496 20.9651C28.4638 21.1518 28.3594 21.4045 28.3594 21.6679V27.3594H22.668C22.4045 27.3594 22.1518 27.4638 21.9651 27.6496L18 31.5982L14.0349 27.6496C13.8482 27.4638 13.5955 27.3594 13.3321 27.3594H7.64062V21.668C7.64062 21.4045 7.53623 21.1518 7.35036 20.9651L3.40185 17L7.35036 13.0349C7.53623 12.8482 7.64062 12.5955 7.64062 12.3321V6.64062H13.332C13.5955 6.64062 13.8482 6.53623 14.0349 6.35036L18 2.40185L21.9651 6.35036C22.1519 6.53623 22.4045 6.64062 22.668 6.64062H28.3594V12.332C28.3594 12.5955 28.4638 12.8482 28.6496 13.0349L32.5982 17L28.6496 20.9651Z" fill="white"/>
<path d="M17.6768 22V13.1963H17.5522L14.9009 15.0713V13.394L17.6841 11.4312H19.3174V22H17.6768Z" fill="white"/>
</svg>
