<svg width="30" height="31" viewBox="0 0 30 31" fill="none" xmlns="http://www.w3.org/2000/svg">
<rect x="0.202881" y="0.65332" width="29.5438" height="29.5438" rx="4.61623" fill="#5D8082"/>
<path d="M14.3125 7.53389C14.5253 7.10279 14.6317 6.88724 14.7761 6.81838C14.9018 6.75846 15.0478 6.75846 15.1735 6.81838C15.3179 6.88724 15.4243 7.10279 15.6371 7.53389L17.6559 11.6238C17.7187 11.7511 17.7502 11.8147 17.7961 11.8642C17.8367 11.9079 17.8855 11.9433 17.9396 11.9685C18.0008 11.997 18.071 12.0072 18.2114 12.0277L22.7272 12.6878C23.2028 12.7573 23.4406 12.7921 23.5506 12.9082C23.6463 13.0093 23.6914 13.1481 23.6731 13.2861C23.6522 13.4448 23.48 13.6124 23.1358 13.9477L19.8693 17.1293C19.7675 17.2285 19.7166 17.278 19.6837 17.337C19.6546 17.3893 19.636 17.4467 19.6288 17.506C19.6206 17.5731 19.6327 17.6431 19.6567 17.7832L20.4274 22.277C20.5087 22.751 20.5494 22.988 20.473 23.1286C20.4065 23.251 20.2884 23.3368 20.1515 23.3622C19.9941 23.3913 19.7813 23.2794 19.3557 23.0556L15.3186 20.9325C15.1928 20.8664 15.1299 20.8333 15.0636 20.8203C15.005 20.8088 14.9446 20.8088 14.8859 20.8203C14.8197 20.8333 14.7568 20.8664 14.631 20.9325L10.5939 23.0556C10.1683 23.2794 9.95546 23.3913 9.79811 23.3622C9.6612 23.3368 9.54306 23.251 9.4766 23.1286C9.40021 22.988 9.44086 22.751 9.52215 22.277L10.2929 17.7832C10.3169 17.6431 10.3289 17.5731 10.3208 17.506C10.3136 17.4467 10.2949 17.3893 10.2659 17.337C10.233 17.278 10.1821 17.2285 10.0803 17.1293L6.8138 13.9477C6.46952 13.6124 6.29738 13.4448 6.27644 13.2861C6.25821 13.1481 6.30324 13.0093 6.39897 12.9082C6.50901 12.7921 6.74678 12.7573 7.22232 12.6878L11.7382 12.0277C11.8786 12.0072 11.9488 11.997 12.01 11.9685C12.0641 11.9433 12.1129 11.9079 12.1535 11.8642C12.1994 11.8147 12.2308 11.7511 12.2936 11.6238L14.3125 7.53389Z" stroke="white" stroke-width="1.84649" stroke-linecap="round" stroke-linejoin="round"/>
</svg>
