<svg width="30" height="31" viewBox="0 0 30 31" fill="none" xmlns="http://www.w3.org/2000/svg">
<rect x="0.202881" y="0.625" width="29.5438" height="29.5438" rx="4.61623" fill="#5D8082"/>
<path d="M14.9746 6.16406V8.01055M14.9746 22.7825V24.629M7.58868 15.3965H5.74219M9.72517 10.147L8.41951 8.84138M20.2241 10.147L21.5298 8.84138M9.72517 20.6498L8.41951 21.9554M20.2241 20.6498L21.5298 21.9554M24.2071 15.3965H22.3606M19.5909 15.3965C19.5909 17.946 17.5241 20.0127 14.9746 20.0127C12.4252 20.0127 10.3584 17.946 10.3584 15.3965C10.3584 12.847 12.4252 10.7803 14.9746 10.7803C17.5241 10.7803 19.5909 12.847 19.5909 15.3965Z" stroke="white" stroke-width="1.84649" stroke-linecap="round" stroke-linejoin="round"/>
</svg>
